<?xml version="1.0" encoding="utf-8"?>
<!-- Generator: Adobe Illustrator 26.2.1, SVG Export Plug-In . SVG Version: 6.00 Build 0)  -->
<svg version="1.1" id="Layer_1" xmlns="http://www.w3.org/2000/svg" xmlns:xlink="http://www.w3.org/1999/xlink" x="0px" y="0px"
	 viewBox="0 0 187.91 70.29" style="enable-background:new 0 0 187.91 70.29;" xml:space="preserve">
<style type="text/css">
	.st0{fill:#144F92;}
	.st1{fill:#4081C0;}
	.st2{fill:#2A5C9E;}
	.st3{fill:#E9292A;}
	.st4{fill:#FFFFFF;}
	.st5{fill:#EB2627;}
</style>
<g>
	<g>
		<g>
			<g>
				<path class="st0" d="M101.18,30.98l3.16,0.01l1.1,0c0.88-0.26,1.77-0.49,2.65-0.77c4.71-1.48,9.35-3.2,14.18-4.21
					c3.49-0.73,7.05-1.04,10.62-1.23l1.09-2.95l-34.24-0.12c-3.34-0.01-6.45,1.19-8.92,3.21c-1.89,1.55-3.41,3.57-4.29,5.97
					l-0.01,0.03l-1.64,4.46c5.33-0.73,10.61-1.76,15.82-3.08L101.18,30.98z"/>
				<path class="st1" d="M72.22,70l4.82,0.02c5.91,0.02,11.21-3.66,13.25-9.2l1.2-3.31c-5.11,0.95-10.27,1.65-15.46,2.04L72.22,70z"
					/>
				<path class="st2" d="M127.8,38.62l0.77-2.09l2.01-5.45l2.32-6.29c-3.57,0.19-7.13,0.5-10.62,1.22
					c-4.83,1.01-9.48,2.73-14.18,4.21c-0.88,0.28-1.77,0.51-2.65,0.77l10.47,0.04l-1.59,4.31l-0.42,1.14l-14.73-0.05l1.52-4.12
					c-5.21,1.33-10.49,2.35-15.82,3.08l-0.36,0.99l-3.38,9.24l-1.03,2.81l-4.06,11.13c5.19-0.4,10.34-1.09,15.46-2.04l2.23-6.14
					l2.07-5.7l14.73,0.05l-2.85,7.81c0.11-0.03,0.23-0.06,0.34-0.1c4.71-1.48,9.35-3.2,14.18-4.21c0.61-0.13,1.23-0.17,1.84-0.28
					l1.15-3.18L127.8,38.62z"/>
				<path class="st1" d="M108,53.43c-0.11,0.03-0.23,0.06-0.34,0.1l-1.4,3.84l-4.65,12.74l4.82,0.02
					c5.39,0.02,10.24-3.06,12.61-7.81c0.23-0.46,0.46-0.91,0.64-1.39l4.34-11.97c-0.61,0.11-1.23,0.15-1.84,0.28
					C117.35,50.23,112.71,51.95,108,53.43L108,53.43z"/>
				<path class="st0" d="M40.47,12.26l129.95,0.46c7.79,0.03,14.78-4.81,17.49-12.12L57.96,0.14C50.16,0.12,43.18,4.95,40.47,12.26
					L40.47,12.26z"/>
				<path class="st2" d="M172.32,45.94l3.4-9.24l-28.85-0.1l-0.54,0l2.01-5.45l10.72,0.04l8.84,0.03c1.29,0,2.53-0.2,3.73-0.52
					c-1.07-0.23-2.13-0.46-3.19-0.75c-3.86-1.05-7.61-2.49-11.48-3.47c-5.99-1.52-12.18-1.93-18.37-1.87
					c-2.19,1.6-3.94,3.82-4.92,6.49l-2.01,5.45l-0.85,2.31l-2.55,6.92l29.39,0.1l-1.33,3.68c0.18,0.04,0.37,0.06,0.55,0.11
					c3.87,0.99,7.62,2.42,11.48,3.47c0.41,0.11,0.83,0.19,1.24,0.29l2.01-5.55L172.32,45.94z"/>
				<path class="st0" d="M156.96,26.47c3.88,0.99,7.62,2.42,11.48,3.47c1.05,0.29,2.12,0.52,3.19,0.75c4.31-1.18,7.9-4.34,9.49-8.68
					l-8.78-0.03l-25.44-0.09c-3.06-0.01-5.94,0.99-8.31,2.71C144.77,24.54,150.97,24.95,156.96,26.47L156.96,26.47z"/>
				<path class="st1" d="M156.87,49.68c-0.18-0.05-0.37-0.07-0.55-0.11l-2.39,6.65c-1.07,2.89-3.83,4.81-6.91,4.8l-14.41-0.05
					c-3-0.01-5.83,0.94-8.17,2.59c-2.27,1.61-4.07,3.88-5.08,6.61l34.22,0.12c5.91,0.02,11.2-3.66,13.25-9.2l2.77-7.65
					c-0.41-0.1-0.83-0.18-1.24-0.29C164.5,52.09,160.75,50.66,156.87,49.68L156.87,49.68z"/>
				<path class="st1" d="M2.5,67.18l-0.94,2.56l4.8,0.02c2.4,0.01,4.68-0.62,6.69-1.7c2.96-1.59,5.34-4.21,6.56-7.51l2.53-6.91
					c-4.4-1.34-8.73-2.88-12.98-4.64L2.5,67.18z"/>
				<path class="st0" d="M33.9,21.49l3.4-9.24l0.46-1.24c1.14-2.79,4.53-9.51,11.29-10.9l-7.23-0.03l-0.89,0L17.57,0
					C9.76-0.03,2.75,4.8,0,12.12l22.65,0.08l-3.4,9.24l-2.63,7.18c4.35,1.52,8.76,2.83,13.23,3.93L33.9,21.49z"/>
				<path class="st2" d="M29.85,32.54c-4.47-1.09-8.89-2.41-13.23-3.93l-5.14,14.03l-2.33,6.37c4.25,1.76,8.58,3.3,12.98,4.64
					l4.75-12.99L29.85,32.54z"/>
				<path class="st1" d="M58.2,59.83l-3.7,10.11l4.82,0.02c5.91,0.02,11.21-3.66,13.25-9.21l0.37-1.02
					C68.04,60,63.12,60.05,58.2,59.83L58.2,59.83z"/>
				<path class="st0" d="M48.18,31.2l0.15-0.42l2.95,0.01l-1.88,5.15c4.78,0.5,9.58,0.8,14.38,0.83l2.17-5.93l2.85,0.01l-2.15,5.88
					c5.03-0.06,10.05-0.37,15.05-0.95l4.4-12.03l0.76-2.08l-4.84-0.02c0,0,0,0-0.01,0v0l-12.69-0.05L64.5,21.6l-12.79-0.05
					l-4.25-0.02l-0.57,0c-5.9-0.02-11.18,3.65-13.21,9.18l-0.92,2.52c4.56,1.02,9.17,1.8,13.81,2.38L48.18,31.2z"/>
				<path class="st1" d="M40.39,60.56l-3.41,9.31l4.8,0.02c5.91,0.02,11.21-3.66,13.25-9.21l0.37-1.02
					c-4.72-0.3-9.43-0.83-14.1-1.58L40.39,60.56z"/>
				<path class="st2" d="M63.78,36.78c-4.8-0.03-9.6-0.33-14.38-0.83l-8.1,22.13c4.67,0.75,9.38,1.28,14.11,1.58l2.8-7.65
					L63.78,36.78z"/>
				<path class="st2" d="M81.7,35.79c-5,0.58-10.02,0.88-15.05,0.95l-5.18,14.15l-3.27,8.94c4.91,0.22,9.83,0.17,14.74-0.1
					l4.15-11.36L81.7,35.79z"/>
				<path class="st2" d="M32.75,33.24l-2.31,6.3L24.97,54.5c4.46,1.26,8.98,2.3,13.54,3.13l8.05-22.01
					C41.92,35.04,37.31,34.25,32.75,33.24L32.75,33.24z"/>
				<path class="st1" d="M20.22,67.48l-0.85,2.33l4.8,0.02c5.25,0.02,10-2.89,12.43-7.43c0.31-0.57,0.59-1.16,0.82-1.78l1.09-2.99
					c-4.56-0.82-9.08-1.87-13.54-3.13L20.22,67.48z"/>
			</g>
		</g>
		<g>
			<path class="st3" d="M125.49,12.56l44.93,0.16c7.79,0.03,14.78-4.81,17.49-12.12l-44.93-0.16
				C135.19,0.42,128.21,5.26,125.49,12.56L125.49,12.56z"/>
			<g>
				<path class="st4" d="M141.84,2.99l-2.31,6.33h-0.02l-2.28-6.35l-0.72,0l2.61,7.09l0.77,0l2.66-7.07L141.84,2.99z"/>
				<path class="st4" d="M143.22,3l-0.03,7.08l0.68,0L143.9,3L143.22,3z"/>
				<path class="st4" d="M146.04,9.51l0.01-2.8l3.95,0.01l0-0.57l-3.95-0.01l0.01-2.56l4.22,0.02l0-0.57L145.38,3l-0.03,7.08
					l4.96,0.02l0-0.57L146.04,9.51z"/>
				<path class="st4" d="M150.52,3.02l0,0.57l2.45,0.01l-0.02,6.51l0.68,0l0.02-6.51l2.47,0.01l0-0.57L150.52,3.02z"/>
				<path class="st4" d="M161.7,3.06l-0.02,5.99h-0.02l-4.11-6.01l-0.76,0l-0.03,7.08l0.66,0l0.02-5.99h0.02l4.13,6.01l0.76,0
					l0.03-7.08L161.7,3.06z"/>
				<path class="st4" d="M166.62,3.08l-0.76,0L163,10.15l0.7,0l0.87-2.19l3.23,0.01l0.86,2.2l0.72,0L166.62,3.08z M164.78,7.39
					l1.43-3.65l1.35,3.66L164.78,7.39z"/>
				<path class="st4" d="M175.91,3.11l-2.46,6.2l-2.43-6.22l-1,0L170,10.17l0.66,0l0.02-6.12l0.04,0l2.41,6.13l0.63,0l2.44-6.11
					l0.04,0l-0.02,6.12l0.66,0l0.03-7.08L175.91,3.11z"/>
			</g>
		</g>
	</g>
</g>
</svg>
